<svg xmlns="http://www.w3.org/2000/svg" width="20" height="20" viewBox="0 0 20 20" fill="none">
    <path opacity="0.3" d="M14.25 0H5.75C2.57436 0 0 2.57436 0 5.75V14.25C0 17.4256 2.57436 20 5.75 20H14.25C17.4256 20 20 17.4256 20 14.25V5.75C20 2.57436 17.4256 0 14.25 0Z" fill="#A1A5B7"/>
    <path d="M10.37 11.22C11.1101 11.22 11.71 10.6201 11.71 9.88004C11.71 9.13998 11.1101 8.54004 10.37 8.54004C9.62997 8.54004 9.03003 9.13998 9.03003 9.88004C9.03003 10.6201 9.62997 11.22 10.37 11.22Z" fill="#A1A5B7"/>
    <path d="M5.35001 11.22C6.09007 11.22 6.69001 10.6201 6.69001 9.88004C6.69001 9.13998 6.09007 8.54004 5.35001 8.54004C4.60995 8.54004 4.01001 9.13998 4.01001 9.88004C4.01001 10.6201 4.60995 11.22 5.35001 11.22Z" fill="#A1A5B7"/>
    <path d="M15.38 11.22C16.1201 11.22 16.72 10.6201 16.72 9.88004C16.72 9.13998 16.1201 8.54004 15.38 8.54004C14.64 8.54004 14.04 9.13998 14.04 9.88004C14.04 10.6201 14.64 11.22 15.38 11.22Z" fill="#A1A5B7"/>
</svg>